<?xml version="1.0" standalone="no"?>
<!DOCTYPE svg PUBLIC "-//W3C//DTD SVG 20010904//EN"
 "http://www.w3.org/TR/2001/REC-SVG-20010904/DTD/svg10.dtd">
<svg version="1.0" xmlns="http://www.w3.org/2000/svg"
 width="80px" height="80px" viewBox="0 0 512.000000 512.000000"
 preserveAspectRatio="xMidYMid meet">

<g transform="translate(0.000000,512.000000) scale(0.100000,-0.100000)"
fill="#000000" stroke="none">
<path d="M120 3120 l0 -2000 2440 0 2440 0 0 2000 0 2000 -2440 0 -2440 0 0
-2000z m4560 0 l0 -1680 -2120 0 -2120 0 0 1680 0 1680 2120 0 2120 0 0 -1680z"/>
<path d="M3694 4620 c-160 -15 -296 -30 -302 -34 -7 -4 -12 -17 -12 -29 0 -17
33 -50 125 -126 69 -57 125 -107 125 -111 0 -5 -223 -251 -495 -549 -485 -528
-497 -540 -523 -530 -99 38 -1093 403 -1117 410 -18 6 -41 5 -60 -1 -20 -6
-127 -111 -310 -301 -469 -489 -455 -473 -455 -520 0 -56 42 -99 98 -99 50 0
44 -5 417 385 164 171 302 311 309 313 7 1 270 -92 585 -208 314 -115 581
-210 592 -210 12 0 33 7 47 16 15 9 263 274 552 589 l524 573 46 -38 c178
-148 206 -170 227 -170 13 0 26 7 30 17 3 9 -6 154 -21 322 -28 320 -31 333
-75 330 -9 -1 -147 -14 -307 -29z"/>
<path d="M3568 3732 l-227 -247 0 -920 c-1 -818 1 -923 15 -943 l15 -22 368 0
c344 0 369 1 384 18 16 17 17 110 17 1131 l0 1112 -22 -12 c-33 -18 -118 -15
-155 4 -17 9 -61 42 -97 72 -35 30 -66 55 -68 55 -2 0 -105 -112 -230 -248z"/>
<path d="M1222 2948 l-281 -293 -1 -516 c0 -388 3 -518 12 -527 17 -17 749
-17 766 0 9 9 12 199 12 793 l0 782 -77 26 c-141 49 -110 68 -431 -265z"/>
<path d="M2194 2766 c-18 -14 -19 -33 -22 -567 -2 -484 -1 -555 13 -575 l15
-24 370 0 c322 0 371 2 384 16 14 14 16 79 16 570 0 541 0 554 -20 574 -19 19
-33 20 -378 20 -294 0 -362 -3 -378 -14z"/>
<path d="M2144 893 c21 -55 402 -882 407 -883 4 0 408 839 426 887 4 10 -77
13 -417 13 -398 0 -422 -1 -416 -17z"/>
</g>
</svg>
